<?xml version="1.0" encoding="UTF-8"?>
<svg id="Layer_1" data-name="Layer 1" xmlns="http://www.w3.org/2000/svg" xmlns:xlink="http://www.w3.org/1999/xlink" viewBox="0 0 99.65 121.12">
  <defs>
    <style>
      .cls-1 {
        fill: url(#linear-gradient-2);
      }

      .cls-2, .cls-3 {
        fill: #154d78;
      }

      .cls-4 {
        stroke: url(#linear-gradient-4);
      }

      .cls-4, .cls-5, .cls-6 {
        fill: none;
        stroke-miterlimit: 10;
        stroke-width: .31px;
      }

      .cls-7 {
        fill: #fff;
      }

      .cls-5 {
        stroke: url(#linear-gradient-5);
      }

      .cls-6 {
        stroke: url(#linear-gradient-3);
      }

      .cls-8 {
        fill: #21356a;
      }

      .cls-8, .cls-3 {
        font-family: Gadugi, Gadugi;
        font-size: 22px;
      }

      .cls-9 {
        fill: url(#linear-gradient);
      }
    </style>
    <linearGradient id="linear-gradient" x1="39.9" y1="50.91" x2="55.45" y2="50.91" gradientUnits="userSpaceOnUse">
      <stop offset="0" stop-color="#21356a"/>
      <stop offset="1" stop-color="#0a819a"/>
    </linearGradient>
    <linearGradient id="linear-gradient-2" x1="3.28" y1="83.6" x2="92.73" y2="83.6" xlink:href="#linear-gradient"/>
    <linearGradient id="linear-gradient-3" x1="3.28" y1="23.04" x2="52.74" y2="23.04" xlink:href="#linear-gradient"/>
    <linearGradient id="linear-gradient-4" x1="60.32" y1="27.12" x2="70.56" y2="27.12" xlink:href="#linear-gradient"/>
    <linearGradient id="linear-gradient-5" x1="82.72" y1="34.33" x2="92.62" y2="34.33" xlink:href="#linear-gradient"/>
  </defs>
  <g>
    <g>
      <path class="cls-9" d="m39.99,56.01l7.16,4.31v-8.33l-7.26-4.48.09,8.5Zm15.33-8.29l-6.94,4.17-.06,8.44,7.13-4.41-.13-8.2Zm-15.25-1.42l7.58,4.33,7.69-4.3-7.69-4.83-7.58,4.8Z"/>
      <path class="cls-1" d="m3.28,102.17v-56.1h9.77v62.02l-9.77-5.92Zm21.33,12.44l9.77,6.52V46.07h-9.77v68.54Zm35.84-54.65l-13.77,7.78-4.6-3.55v36.51l5.92,3.04,44.73-25.99-.18-31.66h-9.7l.04,26.18-30.58,17.18v-13.48l18.29-10.59-.03-19.3h-10.16l.04,13.89Z"/>
      <polygon class="cls-6" points="3.44 45.92 12.92 45.92 12.89 30.99 41.84 14.64 41.96 28.82 24.74 38.88 24.74 45.92 34.22 45.92 34.22 44.03 46.67 36.86 52.59 40 52.59 3.01 46.69 .18 3.44 25.83 3.44 45.92"/>
      <polygon class="cls-4" points="60.48 8.44 70.27 13.91 70.4 45.92 60.61 45.77 60.48 8.44"/>
    </g>
    <polygon class="cls-5" points="82.88 21.89 92.31 27.52 92.46 46.88 82.94 46.88 82.88 21.89"/>
  </g>
  <rect class="cls-7" y="36.05" width="95.14" height="37.53"/>
  <g>
    <g>
      <text class="cls-8" transform="translate(1.6 58.63) scale(.95 1)"><tspan x="0" y="0">Cafévist@ </tspan></text>
      <text class="cls-3" transform="translate(1.6 58.63) scale(.95 1)"><tspan x="0" y="0">Cafévist@ </tspan></text>
    </g>
    <g>
      <g>
        <path d="m6.21,63.47h-1.3v1.21h1.21v.37h-1.21v1.55h-.39v-3.5h1.69v.37Z"/>
        <path d="m8.72,66.6h-.38v-.4h0c-.16.3-.4.45-.74.45-.57,0-.85-.35-.85-1.06v-1.49h.38v1.43c0,.53.19.79.58.79.19,0,.34-.07.46-.22.12-.14.18-.33.18-.57v-1.44h.38v2.5Z"/>
        <path d="m11.4,65.45h-1.68c0,.28.08.49.21.64.14.15.32.23.56.23.27,0,.52-.09.74-.28v.38c-.21.16-.49.24-.83.24s-.6-.11-.79-.34c-.19-.23-.29-.55-.29-.96,0-.39.1-.71.31-.95.21-.25.47-.37.78-.37s.55.11.72.32.26.5.26.88v.21Zm-.39-.34c0-.23-.05-.41-.16-.54-.11-.13-.25-.19-.44-.19s-.33.07-.46.2c-.13.13-.2.31-.23.53h1.29Z"/>
        <path d="m12.36,66.6h-.38v-3.7h.38v3.7Z"/>
        <path d="m16.33,64.1l-1.1,2.9c-.2.52-.47.78-.82.78-.1,0-.18-.01-.25-.03v-.36c.08.03.16.04.23.04.19,0,.34-.12.43-.36l.19-.47-.93-2.5h.42l.64,1.92s.02.09.05.19h.01s.02-.1.05-.19l.68-1.93h.4Z"/>
        <path d="m17.72,66.66c-.35,0-.63-.12-.84-.35-.21-.23-.31-.54-.31-.93,0-.42.11-.75.33-.98.22-.24.51-.35.89-.35s.63.11.83.34c.2.23.3.55.3.95s-.11.72-.32.96-.5.36-.86.36Zm.03-2.28c-.25,0-.44.09-.58.26s-.21.42-.21.72.07.53.22.7c.14.17.34.26.58.26s.44-.08.57-.25c.13-.17.2-.41.2-.72s-.07-.55-.2-.72c-.13-.17-.32-.25-.57-.25Z"/>
        <path d="m21.44,66.6h-.38v-.4h0c-.16.3-.4.45-.74.45-.57,0-.85-.35-.85-1.06v-1.49h.38v1.43c0,.53.19.79.58.79.19,0,.34-.07.46-.22.12-.14.18-.33.18-.57v-1.44h.38v2.5Z"/>
        <path d="m23.45,64.5c-.07-.05-.16-.08-.29-.08-.16,0-.3.08-.41.24s-.16.38-.16.66v1.27h-.38v-2.5h.38v.52h0c.05-.18.14-.31.25-.41.11-.1.24-.15.37-.15.1,0,.18.01.23.03v.42Z"/>
        <path d="m26.79,66.48c-.18.12-.4.17-.65.17-.34,0-.61-.12-.82-.35-.21-.23-.31-.53-.31-.9,0-.41.11-.74.34-.99s.53-.38.9-.38c.21,0,.39.04.55.12v.41c-.18-.13-.37-.2-.57-.2-.24,0-.44.09-.6.27-.16.18-.23.42-.23.72s.07.52.22.69.34.25.59.25c.21,0,.4-.07.59-.22v.38Z"/>
        <path d="m28.61,64.5c-.07-.05-.16-.08-.29-.08-.16,0-.3.08-.41.24s-.16.38-.16.66v1.27h-.38v-2.5h.38v.52h0c.05-.18.14-.31.25-.41.11-.1.24-.15.37-.15.1,0,.18.01.23.03v.42Z"/>
        <path d="m30.73,66.6h-.38v-.39h0c-.17.3-.41.45-.73.45-.24,0-.42-.07-.56-.2-.13-.13-.2-.31-.2-.53,0-.47.26-.74.79-.82l.71-.1c0-.42-.16-.64-.49-.64-.29,0-.55.1-.78.31v-.41c.23-.16.5-.23.81-.23.56,0,.84.31.84.93v1.63Zm-.38-1.26l-.57.08c-.18.03-.31.07-.4.14-.09.07-.13.18-.13.35,0,.12.04.22.12.3s.19.12.33.12c.19,0,.34-.07.47-.21.12-.14.18-.32.18-.53v-.25Z"/>
        <path d="m33.32,64.1l-.95,2.5h-.37l-.9-2.5h.42l.61,1.82c.04.13.07.25.08.35h0c.02-.13.04-.24.07-.34l.63-1.83h.4Z"/>
        <path d="m33.93,63.46c-.07,0-.13-.02-.17-.07s-.07-.11-.07-.19.02-.14.07-.19c.05-.05.11-.08.17-.08s.13.03.18.08c.05.05.07.11.07.19,0,.07-.02.13-.07.18-.05.05-.11.08-.18.08Zm.19,3.13h-.38v-2.5h.38v2.5Z"/>
        <path d="m36.86,66.6h-.38v-1.43c0-.53-.18-.8-.55-.8-.19,0-.35.08-.47.23s-.19.34-.19.57v1.43h-.38v-2.5h.38v.42h0c.18-.32.44-.47.78-.47.26,0,.46.09.6.26.14.18.21.43.21.77v1.53Z"/>
        <path d="m39.62,66.4c0,.92-.42,1.38-1.26,1.38-.29,0-.55-.06-.77-.18v-.4c.27.16.52.23.77.23.59,0,.88-.33.88-.98v-.27h0c-.18.32-.45.48-.82.48-.3,0-.54-.11-.72-.33-.18-.22-.27-.52-.27-.9,0-.42.1-.76.29-1.01.19-.25.46-.38.8-.38s.56.14.71.41h0v-.35h.38v2.3Zm-.38-.93v-.37c0-.2-.06-.37-.19-.51-.13-.14-.29-.21-.48-.21-.24,0-.42.09-.55.27-.13.18-.2.43-.2.76,0,.28.06.5.19.67s.3.25.51.25.39-.08.52-.24c.13-.16.2-.36.2-.61Z"/>
        <path d="m40.24,66.51v-.43c.21.16.44.24.69.24.34,0,.5-.12.5-.35,0-.07-.01-.12-.04-.17-.03-.05-.07-.09-.12-.12s-.11-.07-.17-.1c-.07-.03-.14-.06-.21-.09-.11-.04-.2-.09-.28-.13s-.15-.1-.2-.15c-.05-.06-.09-.12-.12-.19-.03-.07-.04-.16-.04-.25,0-.12.03-.22.08-.31.05-.09.12-.17.21-.23.08-.06.18-.11.29-.14.11-.03.22-.05.34-.05.21,0,.39.04.55.11v.41c-.17-.12-.38-.18-.6-.18-.07,0-.14,0-.19.03-.06.02-.11.04-.15.07s-.07.07-.1.11-.03.09-.03.14c0,.07.01.12.03.16.02.04.06.08.1.12.04.04.1.07.16.09.06.03.13.06.21.09.11.04.2.09.28.13s.16.09.21.15c.06.06.1.12.14.19.03.07.05.16.05.26,0,.12-.03.23-.08.32-.05.09-.12.17-.21.23-.09.06-.19.1-.3.13s-.23.04-.36.04c-.24,0-.46-.05-.64-.15Z"/>
        <path d="m44.89,63.25c-.07-.04-.16-.07-.25-.07-.27,0-.4.18-.4.53v.39h.56v.34h-.56v2.16h-.38v-2.16h-.41v-.34h.41v-.41c0-.26.07-.47.22-.62.14-.15.32-.23.54-.23.12,0,.21.01.28.04v.36Z"/>
        <path d="m46.2,66.66c-.35,0-.63-.12-.84-.35-.21-.23-.31-.54-.31-.93,0-.42.11-.75.33-.98.22-.24.51-.35.89-.35s.63.11.83.34c.2.23.3.55.3.95s-.11.72-.32.96-.5.36-.86.36Zm.03-2.28c-.25,0-.44.09-.58.26s-.21.42-.21.72.07.53.22.7c.14.17.34.26.58.26s.44-.08.57-.25c.13-.17.2-.41.2-.72s-.07-.55-.2-.72c-.13-.17-.32-.25-.57-.25Z"/>
        <path d="m49.24,64.5c-.07-.05-.16-.08-.29-.08-.16,0-.3.08-.41.24s-.16.38-.16.66v1.27h-.38v-2.5h.38v.52h0c.05-.18.14-.31.25-.41.11-.1.24-.15.37-.15.1,0,.18.01.23.03v.42Z"/>
        <path d="m51.01,66.6v-3.5h.95c.29,0,.52.07.69.22.17.15.25.34.25.58,0,.2-.05.37-.15.52s-.24.25-.42.31h0c.23.04.41.13.54.28s.2.35.2.59c0,.3-.1.54-.31.73-.21.19-.46.28-.77.28h-.97Zm.39-3.13v1.13h.4c.21,0,.38-.05.5-.16.12-.11.18-.26.18-.46,0-.34-.21-.51-.64-.51h-.45Zm0,1.5v1.26h.53c.23,0,.41-.06.53-.17.13-.11.19-.27.19-.47,0-.41-.27-.62-.8-.62h-.45Z"/>
        <path d="m55.62,66.6h-.38v-.4h0c-.16.3-.4.45-.74.45-.57,0-.85-.35-.85-1.06v-1.49h.38v1.43c0,.53.19.79.58.79.19,0,.34-.07.46-.22.12-.14.18-.33.18-.57v-1.44h.38v2.5Z"/>
        <path d="m56.24,66.51v-.43c.21.16.44.24.69.24.34,0,.5-.12.5-.35,0-.07-.01-.12-.04-.17-.03-.05-.07-.09-.12-.12s-.11-.07-.17-.1c-.07-.03-.14-.06-.21-.09-.11-.04-.2-.09-.28-.13s-.15-.1-.2-.15c-.05-.06-.09-.12-.12-.19-.03-.07-.04-.16-.04-.25,0-.12.03-.22.08-.31.05-.09.12-.17.21-.23.08-.06.18-.11.29-.14.11-.03.22-.05.34-.05.21,0,.39.04.55.11v.41c-.17-.12-.38-.18-.6-.18-.07,0-.14,0-.19.03-.06.02-.11.04-.15.07s-.07.07-.1.11-.03.09-.03.14c0,.07.01.12.03.16.02.04.06.08.1.12.04.04.1.07.16.09.06.03.13.06.21.09.11.04.2.09.28.13s.16.09.21.15c.06.06.1.12.14.19.03.07.05.16.05.26,0,.12-.03.23-.08.32-.05.09-.12.17-.21.23-.09.06-.19.1-.3.13s-.23.04-.36.04c-.24,0-.46-.05-.64-.15Z"/>
        <path d="m58.61,63.46c-.07,0-.13-.02-.17-.07s-.07-.11-.07-.19.02-.14.07-.19c.05-.05.11-.08.17-.08s.13.03.18.08c.05.05.07.11.07.19,0,.07-.02.13-.07.18-.05.05-.11.08-.18.08Zm.19,3.13h-.38v-2.5h.38v2.5Z"/>
        <path d="m61.54,66.6h-.38v-1.43c0-.53-.18-.8-.55-.8-.19,0-.35.08-.47.23s-.19.34-.19.57v1.43h-.38v-2.5h.38v.42h0c.18-.32.44-.47.78-.47.26,0,.46.09.6.26.14.18.21.43.21.77v1.53Z"/>
        <path d="m64.17,65.45h-1.68c0,.28.08.49.21.64.14.15.32.23.56.23.27,0,.52-.09.74-.28v.38c-.21.16-.49.24-.83.24s-.6-.11-.79-.34c-.19-.23-.29-.55-.29-.96,0-.39.1-.71.31-.95.21-.25.47-.37.78-.37s.55.11.72.32.26.5.26.88v.21Zm-.39-.34c0-.23-.05-.41-.16-.54-.11-.13-.25-.19-.44-.19s-.33.07-.46.2c-.13.13-.2.31-.23.53h1.29Z"/>
        <path d="m64.61,66.51v-.43c.21.16.44.24.69.24.34,0,.5-.12.5-.35,0-.07-.01-.12-.04-.17-.03-.05-.07-.09-.12-.12s-.11-.07-.17-.1c-.07-.03-.14-.06-.21-.09-.11-.04-.2-.09-.28-.13s-.15-.1-.2-.15c-.05-.06-.09-.12-.12-.19-.03-.07-.04-.16-.04-.25,0-.12.03-.22.08-.31.05-.09.12-.17.21-.23.08-.06.18-.11.29-.14.11-.03.22-.05.34-.05.21,0,.39.04.55.11v.41c-.17-.12-.38-.18-.6-.18-.07,0-.14,0-.19.03-.06.02-.11.04-.15.07s-.07.07-.1.11-.03.09-.03.14c0,.07.01.12.03.16.02.04.06.08.1.12.04.04.1.07.16.09.06.03.13.06.21.09.11.04.2.09.28.13s.16.09.21.15c.06.06.1.12.14.19.03.07.05.16.05.26,0,.12-.03.23-.08.32-.05.09-.12.17-.21.23-.09.06-.19.1-.3.13s-.23.04-.36.04c-.24,0-.46-.05-.64-.15Z"/>
        <path d="m66.63,66.51v-.43c.21.16.44.24.69.24.34,0,.5-.12.5-.35,0-.07-.01-.12-.04-.17-.03-.05-.07-.09-.12-.12s-.11-.07-.17-.1c-.07-.03-.14-.06-.21-.09-.11-.04-.2-.09-.28-.13s-.15-.1-.2-.15c-.05-.06-.09-.12-.12-.19-.03-.07-.04-.16-.04-.25,0-.12.03-.22.08-.31.05-.09.12-.17.21-.23.08-.06.18-.11.29-.14.11-.03.22-.05.34-.05.21,0,.39.04.55.11v.41c-.17-.12-.38-.18-.6-.18-.07,0-.14,0-.19.03-.06.02-.11.04-.15.07s-.07.07-.1.11-.03.09-.03.14c0,.07.01.12.03.16.02.04.06.08.1.12.04.04.1.07.16.09.06.03.13.06.21.09.11.04.2.09.28.13s.16.09.21.15c.06.06.1.12.14.19.03.07.05.16.05.26,0,.12-.03.23-.08.32-.05.09-.12.17-.21.23-.09.06-.19.1-.3.13s-.23.04-.36.04c-.24,0-.46-.05-.64-.15Z"/>
        <path d="m69.99,66.46v-.48c.05.05.12.09.19.13.07.04.15.07.23.1.08.03.16.05.25.06s.16.02.23.02c.24,0,.42-.05.54-.14.12-.09.18-.23.18-.4,0-.09-.02-.18-.06-.25-.04-.07-.09-.13-.16-.19-.07-.06-.15-.11-.25-.17-.1-.05-.2-.11-.31-.17-.12-.06-.22-.12-.33-.19-.1-.06-.19-.13-.26-.21-.07-.08-.13-.16-.17-.26-.04-.1-.06-.21-.06-.34,0-.16.03-.3.1-.42.07-.12.15-.21.26-.29.11-.08.23-.13.37-.17.14-.04.28-.06.42-.06.33,0,.57.04.72.12v.46c-.2-.14-.45-.21-.76-.21-.09,0-.17,0-.26.03-.09.02-.16.05-.23.09-.07.04-.12.1-.16.16-.04.07-.06.15-.06.24,0,.09.02.17.05.23.03.06.08.12.14.18.06.05.14.11.23.16.09.05.19.11.31.17.12.06.23.13.34.2s.2.14.28.23c.08.08.14.17.19.28.05.1.07.22.07.35,0,.17-.03.32-.1.44-.06.12-.15.22-.26.29-.11.08-.24.13-.38.16-.14.03-.29.05-.45.05-.05,0-.12,0-.2-.01-.08,0-.16-.02-.24-.04-.08-.02-.16-.04-.23-.06s-.13-.05-.17-.08Z"/>
        <path d="m73.63,66.66c-.35,0-.63-.12-.84-.35-.21-.23-.31-.54-.31-.93,0-.42.11-.75.33-.98.22-.24.51-.35.89-.35s.63.11.83.34c.2.23.3.55.3.95s-.11.72-.32.96-.5.36-.86.36Zm.03-2.28c-.25,0-.44.09-.58.26s-.21.42-.21.72.07.53.22.7c.14.17.34.26.58.26s.44-.08.57-.25c.13-.17.2-.41.2-.72s-.07-.55-.2-.72c-.13-.17-.32-.25-.57-.25Z"/>
        <path d="m75.8,66.6h-.38v-3.7h.38v3.7Z"/>
        <path d="m78.5,66.6h-.38v-.4h0c-.16.3-.4.45-.74.45-.57,0-.85-.35-.85-1.06v-1.49h.38v1.43c0,.53.19.79.58.79.19,0,.34-.07.46-.22.12-.14.18-.33.18-.57v-1.44h.38v2.5Z"/>
        <path d="m80.38,66.57c-.09.05-.21.08-.36.08-.42,0-.63-.24-.63-.73v-1.48h-.41v-.34h.41v-.61l.38-.13v.74h.6v.34h-.6v1.41c0,.17.03.29.08.36.05.07.14.11.27.11.1,0,.18-.03.25-.08v.34Z"/>
        <path d="m81.08,63.46c-.07,0-.13-.02-.17-.07s-.07-.11-.07-.19.02-.14.07-.19c.05-.05.11-.08.17-.08s.13.03.18.08c.05.05.07.11.07.19,0,.07-.02.13-.07.18-.05.05-.11.08-.18.08Zm.19,3.13h-.38v-2.5h.38v2.5Z"/>
        <path d="m83.03,66.66c-.35,0-.63-.12-.84-.35-.21-.23-.31-.54-.31-.93,0-.42.11-.75.33-.98.22-.24.51-.35.89-.35s.63.11.83.34c.2.23.3.55.3.95s-.11.72-.32.96-.5.36-.86.36Zm.03-2.28c-.25,0-.44.09-.58.26s-.21.42-.21.72.07.53.22.7c.14.17.34.26.58.26s.44-.08.57-.25c.13-.17.2-.41.2-.72s-.07-.55-.2-.72c-.13-.17-.32-.25-.57-.25Z"/>
        <path d="m86.81,66.6h-.38v-1.43c0-.53-.18-.8-.55-.8-.19,0-.35.08-.47.23s-.19.34-.19.57v1.43h-.38v-2.5h.38v.42h0c.18-.32.44-.47.78-.47.26,0,.46.09.6.26.14.18.21.43.21.77v1.53Z"/>
        <path d="m87.38,66.51v-.43c.21.16.44.24.69.24.34,0,.5-.12.5-.35,0-.07-.01-.12-.04-.17-.03-.05-.07-.09-.12-.12s-.11-.07-.17-.1c-.07-.03-.14-.06-.21-.09-.11-.04-.2-.09-.28-.13s-.15-.1-.2-.15c-.05-.06-.09-.12-.12-.19-.03-.07-.04-.16-.04-.25,0-.12.03-.22.08-.31.05-.09.12-.17.21-.23.08-.06.18-.11.29-.14.11-.03.22-.05.34-.05.21,0,.39.04.55.11v.41c-.17-.12-.38-.18-.6-.18-.07,0-.14,0-.19.03-.06.02-.11.04-.15.07s-.07.07-.1.11-.03.09-.03.14c0,.07.01.12.03.16.02.04.06.08.1.12.04.04.1.07.16.09.06.03.13.06.21.09.11.04.2.09.28.13s.16.09.21.15c.06.06.1.12.14.19.03.07.05.16.05.26,0,.12-.03.23-.08.32-.05.09-.12.17-.21.23-.09.06-.19.1-.3.13s-.23.04-.36.04c-.24,0-.46-.05-.64-.15Z"/>
      </g>
      <g>
        <path class="cls-2" d="m6.21,63.47h-1.3v1.21h1.21v.37h-1.21v1.55h-.39v-3.5h1.69v.37Z"/>
        <path class="cls-2" d="m8.72,66.6h-.38v-.4h0c-.16.3-.4.45-.74.45-.57,0-.85-.35-.85-1.06v-1.49h.38v1.43c0,.53.19.79.58.79.19,0,.34-.07.46-.22.12-.14.18-.33.18-.57v-1.44h.38v2.5Z"/>
        <path class="cls-2" d="m11.4,65.45h-1.68c0,.28.08.49.21.64.14.15.32.23.56.23.27,0,.52-.09.74-.28v.38c-.21.16-.49.24-.83.24s-.6-.11-.79-.34c-.19-.23-.29-.55-.29-.96,0-.39.1-.71.31-.95.21-.25.47-.37.78-.37s.55.11.72.32.26.5.26.88v.21Zm-.39-.34c0-.23-.05-.41-.16-.54-.11-.13-.25-.19-.44-.19s-.33.07-.46.2c-.13.13-.2.31-.23.53h1.29Z"/>
        <path class="cls-2" d="m12.36,66.6h-.38v-3.7h.38v3.7Z"/>
        <path class="cls-2" d="m16.33,64.1l-1.1,2.9c-.2.52-.47.78-.82.78-.1,0-.18-.01-.25-.03v-.36c.08.03.16.04.23.04.19,0,.34-.12.43-.36l.19-.47-.93-2.5h.42l.64,1.92s.02.09.05.19h.01s.02-.1.05-.19l.68-1.93h.4Z"/>
        <path class="cls-2" d="m17.72,66.66c-.35,0-.63-.12-.84-.35-.21-.23-.31-.54-.31-.93,0-.42.11-.75.33-.98.22-.24.51-.35.89-.35s.63.11.83.34c.2.23.3.55.3.95s-.11.72-.32.96-.5.36-.86.36Zm.03-2.28c-.25,0-.44.09-.58.26s-.21.42-.21.72.07.53.22.7c.14.17.34.26.58.26s.44-.08.57-.25c.13-.17.2-.41.2-.72s-.07-.55-.2-.72c-.13-.17-.32-.25-.57-.25Z"/>
        <path class="cls-2" d="m21.44,66.6h-.38v-.4h0c-.16.3-.4.45-.74.45-.57,0-.85-.35-.85-1.06v-1.49h.38v1.43c0,.53.19.79.58.79.19,0,.34-.07.46-.22.12-.14.18-.33.18-.57v-1.44h.38v2.5Z"/>
        <path class="cls-2" d="m23.45,64.5c-.07-.05-.16-.08-.29-.08-.16,0-.3.08-.41.24s-.16.38-.16.66v1.27h-.38v-2.5h.38v.52h0c.05-.18.14-.31.25-.41.11-.1.24-.15.37-.15.1,0,.18.01.23.03v.42Z"/>
        <path class="cls-2" d="m26.79,66.48c-.18.12-.4.17-.65.17-.34,0-.61-.12-.82-.35-.21-.23-.31-.53-.31-.9,0-.41.11-.74.34-.99s.53-.38.9-.38c.21,0,.39.04.55.12v.41c-.18-.13-.37-.2-.57-.2-.24,0-.44.09-.6.27-.16.18-.23.42-.23.72s.07.52.22.69.34.25.59.25c.21,0,.4-.07.59-.22v.38Z"/>
        <path class="cls-2" d="m28.61,64.5c-.07-.05-.16-.08-.29-.08-.16,0-.3.08-.41.24s-.16.38-.16.66v1.27h-.38v-2.5h.38v.52h0c.05-.18.14-.31.25-.41.11-.1.24-.15.37-.15.1,0,.18.01.23.03v.42Z"/>
        <path class="cls-2" d="m30.73,66.6h-.38v-.39h0c-.17.3-.41.45-.73.45-.24,0-.42-.07-.56-.2-.13-.13-.2-.31-.2-.53,0-.47.26-.74.79-.82l.71-.1c0-.42-.16-.64-.49-.64-.29,0-.55.1-.78.31v-.41c.23-.16.5-.23.81-.23.56,0,.84.31.84.93v1.63Zm-.38-1.26l-.57.08c-.18.03-.31.07-.4.14-.09.07-.13.18-.13.35,0,.12.04.22.12.3s.19.12.33.12c.19,0,.34-.07.47-.21.12-.14.18-.32.18-.53v-.25Z"/>
        <path class="cls-2" d="m33.32,64.1l-.95,2.5h-.37l-.9-2.5h.42l.61,1.82c.04.13.07.25.08.35h0c.02-.13.04-.24.07-.34l.63-1.83h.4Z"/>
        <path class="cls-2" d="m33.93,63.46c-.07,0-.13-.02-.17-.07s-.07-.11-.07-.19.02-.14.07-.19c.05-.05.11-.08.17-.08s.13.03.18.08c.05.05.07.11.07.19,0,.07-.02.13-.07.18-.05.05-.11.08-.18.08Zm.19,3.13h-.38v-2.5h.38v2.5Z"/>
        <path class="cls-2" d="m36.86,66.6h-.38v-1.43c0-.53-.18-.8-.55-.8-.19,0-.35.08-.47.23s-.19.34-.19.57v1.43h-.38v-2.5h.38v.42h0c.18-.32.44-.47.78-.47.26,0,.46.09.6.26.14.18.21.43.21.77v1.53Z"/>
        <path class="cls-2" d="m39.62,66.4c0,.92-.42,1.38-1.26,1.38-.29,0-.55-.06-.77-.18v-.4c.27.16.52.23.77.23.59,0,.88-.33.88-.98v-.27h0c-.18.32-.45.48-.82.48-.3,0-.54-.11-.72-.33-.18-.22-.27-.52-.27-.9,0-.42.1-.76.29-1.01.19-.25.46-.38.8-.38s.56.14.71.41h0v-.35h.38v2.3Zm-.38-.93v-.37c0-.2-.06-.37-.19-.51-.13-.14-.29-.21-.48-.21-.24,0-.42.09-.55.27-.13.18-.2.43-.2.76,0,.28.06.5.19.67s.3.25.51.25.39-.08.52-.24c.13-.16.2-.36.2-.61Z"/>
        <path class="cls-2" d="m40.24,66.51v-.43c.21.16.44.24.69.24.34,0,.5-.12.5-.35,0-.07-.01-.12-.04-.17-.03-.05-.07-.09-.12-.12s-.11-.07-.17-.1c-.07-.03-.14-.06-.21-.09-.11-.04-.2-.09-.28-.13s-.15-.1-.2-.15c-.05-.06-.09-.12-.12-.19-.03-.07-.04-.16-.04-.25,0-.12.03-.22.08-.31.05-.09.12-.17.21-.23.08-.06.18-.11.29-.14.11-.03.22-.05.34-.05.21,0,.39.04.55.11v.41c-.17-.12-.38-.18-.6-.18-.07,0-.14,0-.19.03-.06.02-.11.04-.15.07s-.07.07-.1.11-.03.09-.03.14c0,.07.01.12.03.16.02.04.06.08.1.12.04.04.1.07.16.09.06.03.13.06.21.09.11.04.2.09.28.13s.16.09.21.15c.06.06.1.12.14.19.03.07.05.16.05.26,0,.12-.03.23-.08.32-.05.09-.12.17-.21.23-.09.06-.19.1-.3.13s-.23.04-.36.04c-.24,0-.46-.05-.64-.15Z"/>
        <path class="cls-2" d="m44.89,63.25c-.07-.04-.16-.07-.25-.07-.27,0-.4.18-.4.53v.39h.56v.34h-.56v2.16h-.38v-2.16h-.41v-.34h.41v-.41c0-.26.07-.47.22-.62.14-.15.32-.23.54-.23.12,0,.21.01.28.04v.36Z"/>
        <path class="cls-2" d="m46.2,66.66c-.35,0-.63-.12-.84-.35-.21-.23-.31-.54-.31-.93,0-.42.11-.75.33-.98.22-.24.51-.35.89-.35s.63.11.83.34c.2.23.3.55.3.95s-.11.72-.32.96-.5.36-.86.36Zm.03-2.28c-.25,0-.44.09-.58.26s-.21.42-.21.72.07.53.22.7c.14.17.34.26.58.26s.44-.08.57-.25c.13-.17.2-.41.2-.72s-.07-.55-.2-.72c-.13-.17-.32-.25-.57-.25Z"/>
        <path class="cls-2" d="m49.24,64.5c-.07-.05-.16-.08-.29-.08-.16,0-.3.08-.41.24s-.16.38-.16.66v1.27h-.38v-2.5h.38v.52h0c.05-.18.14-.31.25-.41.11-.1.24-.15.37-.15.1,0,.18.01.23.03v.42Z"/>
        <path class="cls-2" d="m51.01,66.6v-3.5h.95c.29,0,.52.07.69.22.17.15.25.34.25.58,0,.2-.05.37-.15.52s-.24.25-.42.31h0c.23.04.41.13.54.28s.2.35.2.59c0,.3-.1.54-.31.73-.21.19-.46.28-.77.28h-.97Zm.39-3.13v1.13h.4c.21,0,.38-.05.5-.16.12-.11.18-.26.18-.46,0-.34-.21-.51-.64-.51h-.45Zm0,1.5v1.26h.53c.23,0,.41-.06.53-.17.13-.11.19-.27.19-.47,0-.41-.27-.62-.8-.62h-.45Z"/>
        <path class="cls-2" d="m55.62,66.6h-.38v-.4h0c-.16.3-.4.45-.74.45-.57,0-.85-.35-.85-1.06v-1.49h.38v1.43c0,.53.19.79.58.79.19,0,.34-.07.46-.22.12-.14.18-.33.18-.57v-1.44h.38v2.5Z"/>
        <path class="cls-2" d="m56.24,66.51v-.43c.21.16.44.24.69.24.34,0,.5-.12.5-.35,0-.07-.01-.12-.04-.17-.03-.05-.07-.09-.12-.12s-.11-.07-.17-.1c-.07-.03-.14-.06-.21-.09-.11-.04-.2-.09-.28-.13s-.15-.1-.2-.15c-.05-.06-.09-.12-.12-.19-.03-.07-.04-.16-.04-.25,0-.12.03-.22.08-.31.05-.09.12-.17.21-.23.08-.06.18-.11.29-.14.11-.03.22-.05.34-.05.21,0,.39.04.55.11v.41c-.17-.12-.38-.18-.6-.18-.07,0-.14,0-.19.03-.06.02-.11.04-.15.07s-.07.07-.1.11-.03.09-.03.14c0,.07.01.12.03.16.02.04.06.08.1.12.04.04.1.07.16.09.06.03.13.06.21.09.11.04.2.09.28.13s.16.09.21.15c.06.06.1.12.14.19.03.07.05.16.05.26,0,.12-.03.23-.08.32-.05.09-.12.17-.21.23-.09.06-.19.1-.3.13s-.23.04-.36.04c-.24,0-.46-.05-.64-.15Z"/>
        <path class="cls-2" d="m58.61,63.46c-.07,0-.13-.02-.17-.07s-.07-.11-.07-.19.02-.14.07-.19c.05-.05.11-.08.17-.08s.13.03.18.08c.05.05.07.11.07.19,0,.07-.02.13-.07.18-.05.05-.11.08-.18.08Zm.19,3.13h-.38v-2.5h.38v2.5Z"/>
        <path class="cls-2" d="m61.54,66.6h-.38v-1.43c0-.53-.18-.8-.55-.8-.19,0-.35.08-.47.23s-.19.34-.19.57v1.43h-.38v-2.5h.38v.42h0c.18-.32.44-.47.78-.47.26,0,.46.09.6.26.14.18.21.43.21.77v1.53Z"/>
        <path class="cls-2" d="m64.17,65.45h-1.68c0,.28.08.49.21.64.14.15.32.23.56.23.27,0,.52-.09.74-.28v.38c-.21.16-.49.24-.83.24s-.6-.11-.79-.34c-.19-.23-.29-.55-.29-.96,0-.39.1-.71.31-.95.21-.25.47-.37.78-.37s.55.11.72.32.26.5.26.88v.21Zm-.39-.34c0-.23-.05-.41-.16-.54-.11-.13-.25-.19-.44-.19s-.33.07-.46.2c-.13.13-.2.31-.23.53h1.29Z"/>
        <path class="cls-2" d="m64.61,66.51v-.43c.21.16.44.24.69.24.34,0,.5-.12.5-.35,0-.07-.01-.12-.04-.17-.03-.05-.07-.09-.12-.12s-.11-.07-.17-.1c-.07-.03-.14-.06-.21-.09-.11-.04-.2-.09-.28-.13s-.15-.1-.2-.15c-.05-.06-.09-.12-.12-.19-.03-.07-.04-.16-.04-.25,0-.12.03-.22.08-.31.05-.09.12-.17.21-.23.08-.06.18-.11.29-.14.11-.03.22-.05.34-.05.21,0,.39.04.55.11v.41c-.17-.12-.38-.18-.6-.18-.07,0-.14,0-.19.03-.06.02-.11.04-.15.07s-.07.07-.1.11-.03.09-.03.14c0,.07.01.12.03.16.02.04.06.08.1.12.04.04.1.07.16.09.06.03.13.06.21.09.11.04.2.09.28.13s.16.09.21.15c.06.06.1.12.14.19.03.07.05.16.05.26,0,.12-.03.23-.08.32-.05.09-.12.17-.21.23-.09.06-.19.1-.3.13s-.23.04-.36.04c-.24,0-.46-.05-.64-.15Z"/>
        <path class="cls-2" d="m66.63,66.51v-.43c.21.16.44.24.69.24.34,0,.5-.12.5-.35,0-.07-.01-.12-.04-.17-.03-.05-.07-.09-.12-.12s-.11-.07-.17-.1c-.07-.03-.14-.06-.21-.09-.11-.04-.2-.09-.28-.13s-.15-.1-.2-.15c-.05-.06-.09-.12-.12-.19-.03-.07-.04-.16-.04-.25,0-.12.03-.22.08-.31.05-.09.12-.17.21-.23.08-.06.18-.11.29-.14.11-.03.22-.05.34-.05.21,0,.39.04.55.11v.41c-.17-.12-.38-.18-.6-.18-.07,0-.14,0-.19.03-.06.02-.11.04-.15.07s-.07.07-.1.11-.03.09-.03.14c0,.07.01.12.03.16.02.04.06.08.1.12.04.04.1.07.16.09.06.03.13.06.21.09.11.04.2.09.28.13s.16.09.21.15c.06.06.1.12.14.19.03.07.05.16.05.26,0,.12-.03.23-.08.32-.05.09-.12.17-.21.23-.09.06-.19.1-.3.13s-.23.04-.36.04c-.24,0-.46-.05-.64-.15Z"/>
        <path class="cls-2" d="m69.99,66.46v-.48c.05.05.12.09.19.13.07.04.15.07.23.1.08.03.16.05.25.06s.16.02.23.02c.24,0,.42-.05.54-.14.12-.09.18-.23.18-.4,0-.09-.02-.18-.06-.25-.04-.07-.09-.13-.16-.19-.07-.06-.15-.11-.25-.17-.1-.05-.2-.11-.31-.17-.12-.06-.22-.12-.33-.19-.1-.06-.19-.13-.26-.21-.07-.08-.13-.16-.17-.26-.04-.1-.06-.21-.06-.34,0-.16.03-.3.1-.42.07-.12.15-.21.26-.29.11-.08.23-.13.37-.17.14-.04.28-.06.42-.06.33,0,.57.04.72.12v.46c-.2-.14-.45-.21-.76-.21-.09,0-.17,0-.26.03-.09.02-.16.05-.23.09-.07.04-.12.1-.16.16-.04.07-.06.15-.06.24,0,.09.02.17.05.23.03.06.08.12.14.18.06.05.14.11.23.16.09.05.19.11.31.17.12.06.23.13.34.2s.2.14.28.23c.08.08.14.17.19.28.05.1.07.22.07.35,0,.17-.03.32-.1.44-.06.12-.15.22-.26.29-.11.08-.24.13-.38.16-.14.03-.29.05-.45.05-.05,0-.12,0-.2-.01-.08,0-.16-.02-.24-.04-.08-.02-.16-.04-.23-.06s-.13-.05-.17-.08Z"/>
        <path class="cls-2" d="m73.63,66.66c-.35,0-.63-.12-.84-.35-.21-.23-.31-.54-.31-.93,0-.42.11-.75.33-.98.22-.24.51-.35.89-.35s.63.11.83.34c.2.23.3.55.3.95s-.11.72-.32.96-.5.36-.86.36Zm.03-2.28c-.25,0-.44.09-.58.26s-.21.42-.21.72.07.53.22.7c.14.17.34.26.58.26s.44-.08.57-.25c.13-.17.2-.41.2-.72s-.07-.55-.2-.72c-.13-.17-.32-.25-.57-.25Z"/>
        <path class="cls-2" d="m75.8,66.6h-.38v-3.7h.38v3.7Z"/>
        <path class="cls-2" d="m78.5,66.6h-.38v-.4h0c-.16.3-.4.45-.74.45-.57,0-.85-.35-.85-1.06v-1.49h.38v1.43c0,.53.19.79.58.79.19,0,.34-.07.46-.22.12-.14.18-.33.18-.57v-1.44h.38v2.5Z"/>
        <path class="cls-2" d="m80.38,66.57c-.09.05-.21.08-.36.08-.42,0-.63-.24-.63-.73v-1.48h-.41v-.34h.41v-.61l.38-.13v.74h.6v.34h-.6v1.41c0,.17.03.29.08.36.05.07.14.11.27.11.1,0,.18-.03.25-.08v.34Z"/>
        <path class="cls-2" d="m81.08,63.46c-.07,0-.13-.02-.17-.07s-.07-.11-.07-.19.02-.14.07-.19c.05-.05.11-.08.17-.08s.13.03.18.08c.05.05.07.11.07.19,0,.07-.02.13-.07.18-.05.05-.11.08-.18.08Zm.19,3.13h-.38v-2.5h.38v2.5Z"/>
        <path class="cls-2" d="m83.03,66.66c-.35,0-.63-.12-.84-.35-.21-.23-.31-.54-.31-.93,0-.42.11-.75.33-.98.22-.24.51-.35.89-.35s.63.11.83.34c.2.23.3.55.3.95s-.11.72-.32.96-.5.36-.86.36Zm.03-2.28c-.25,0-.44.09-.58.26s-.21.42-.21.72.07.53.22.7c.14.17.34.26.58.26s.44-.08.57-.25c.13-.17.2-.41.2-.72s-.07-.55-.2-.72c-.13-.17-.32-.25-.57-.25Z"/>
        <path class="cls-2" d="m86.81,66.6h-.38v-1.43c0-.53-.18-.8-.55-.8-.19,0-.35.08-.47.23s-.19.34-.19.57v1.43h-.38v-2.5h.38v.42h0c.18-.32.44-.47.78-.47.26,0,.46.09.6.26.14.18.21.43.21.77v1.53Z"/>
        <path class="cls-2" d="m87.38,66.51v-.43c.21.16.44.24.69.24.34,0,.5-.12.5-.35,0-.07-.01-.12-.04-.17-.03-.05-.07-.09-.12-.12s-.11-.07-.17-.1c-.07-.03-.14-.06-.21-.09-.11-.04-.2-.09-.28-.13s-.15-.1-.2-.15c-.05-.06-.09-.12-.12-.19-.03-.07-.04-.16-.04-.25,0-.12.03-.22.08-.31.05-.09.12-.17.21-.23.08-.06.18-.11.29-.14.11-.03.22-.05.34-.05.21,0,.39.04.55.11v.41c-.17-.12-.38-.18-.6-.18-.07,0-.14,0-.19.03-.06.02-.11.04-.15.07s-.07.07-.1.11-.03.09-.03.14c0,.07.01.12.03.16.02.04.06.08.1.12.04.04.1.07.16.09.06.03.13.06.21.09.11.04.2.09.28.13s.16.09.21.15c.06.06.1.12.14.19.03.07.05.16.05.26,0,.12-.03.23-.08.32-.05.09-.12.17-.21.23-.09.06-.19.1-.3.13s-.23.04-.36.04c-.24,0-.46-.05-.64-.15Z"/>
      </g>
    </g>
  </g>
</svg>