<svg width="11" height="11" viewBox="0 0 11 11" fill="none" xmlns="http://www.w3.org/2000/svg">
<path d="M5 4H7C7.13261 4 7.25979 3.94732 7.35355 3.85355C7.44732 3.75978 7.5 3.63261 7.5 3.5C7.5 3.36739 7.44732 3.24021 7.35355 3.14645C7.25979 3.05268 7.13261 3 7 3H6V2.5C6 2.36739 5.94732 2.24021 5.85355 2.14645C5.75979 2.05268 5.63261 2 5.5 2C5.36739 2 5.24022 2.05268 5.14645 2.14645C5.05268 2.24021 5 2.36739 5 2.5V3C4.60218 3 4.22065 3.15803 3.93934 3.43934C3.65804 3.72064 3.5 4.10217 3.5 4.5C3.5 4.89782 3.65804 5.27936 3.93934 5.56066C4.22065 5.84196 4.60218 6 5 6H6C6.13261 6 6.25979 6.05268 6.35355 6.14645C6.44732 6.24021 6.5 6.36739 6.5 6.5C6.5 6.63261 6.44732 6.75978 6.35355 6.85355C6.25979 6.94732 6.13261 7 6 7H4C3.86739 7 3.74022 7.05268 3.64645 7.14645C3.55268 7.24021 3.5 7.36739 3.5 7.5C3.5 7.63261 3.55268 7.75978 3.64645 7.85355C3.74022 7.94732 3.86739 8 4 8H5V8.5C5 8.63261 5.05268 8.75978 5.14645 8.85355C5.24022 8.94732 5.36739 9 5.5 9C5.63261 9 5.75979 8.94732 5.85355 8.85355C5.94732 8.75978 6 8.63261 6 8.5V8C6.39783 8 6.77936 7.84196 7.06066 7.56066C7.34197 7.27936 7.5 6.89782 7.5 6.5C7.5 6.10217 7.34197 5.72064 7.06066 5.43934C6.77936 5.15803 6.39783 5 6 5H5C4.86739 5 4.74022 4.94732 4.64645 4.85355C4.55268 4.75978 4.5 4.63261 4.5 4.5C4.5 4.36739 4.55268 4.24021 4.64645 4.14645C4.74022 4.05268 4.86739 4 5 4ZM5.5 0C4.4122 0 3.34884 0.322569 2.44437 0.926917C1.5399 1.53126 0.834947 2.39025 0.418665 3.39524C0.00238307 4.40023 -0.106535 5.5061 0.105683 6.573C0.317902 7.63989 0.841726 8.6199 1.61092 9.38909C2.3801 10.1583 3.36011 10.6821 4.427 10.8943C5.4939 11.1065 6.59977 10.9976 7.60476 10.5813C8.60975 10.1651 9.46874 9.4601 10.0731 8.55564C10.6774 7.65117 11 6.5878 11 5.5C11 4.04131 10.4205 2.64236 9.38909 1.61091C8.35764 0.579463 6.95869 0 5.5 0ZM5.5 10C4.60999 10 3.73996 9.73608 2.99994 9.24161C2.25991 8.74715 1.68314 8.04434 1.34254 7.22207C1.00195 6.39981 0.912835 5.49501 1.08647 4.62209C1.2601 3.74918 1.68869 2.94736 2.31802 2.31802C2.94736 1.68868 3.74918 1.2601 4.62209 1.08647C5.49501 0.912833 6.39981 1.00195 7.22208 1.34254C8.04434 1.68314 8.74715 2.25991 9.24161 2.99993C9.73608 3.73995 10 4.60998 10 5.5C10 6.69347 9.52589 7.83807 8.68198 8.68198C7.83807 9.52589 6.69348 10 5.5 10Z" fill="white"/>
</svg>
