<svg width="12" height="11" viewBox="0 0 12 11" fill="none" xmlns="http://www.w3.org/2000/svg">
<path d="M9.33333 0.5C8.89131 0.5 8.46738 0.675595 8.15482 0.988155C7.84226 1.30072 7.66667 1.72464 7.66667 2.16667V8.83333C7.66667 9.27536 7.84226 9.69928 8.15482 10.0118C8.46738 10.3244 8.89131 10.5 9.33333 10.5C9.77536 10.5 10.1993 10.3244 10.5118 10.0118C10.8244 9.69928 11 9.27536 11 8.83333C11 8.39131 10.8244 7.96738 10.5118 7.65482C10.1993 7.34226 9.77536 7.16667 9.33333 7.16667H2.66667C2.22464 7.16667 1.80072 7.34226 1.48816 7.65482C1.17559 7.96738 1 8.39131 1 8.83333C1 9.27536 1.17559 9.69928 1.48816 10.0118C1.80072 10.3244 2.22464 10.5 2.66667 10.5C3.10869 10.5 3.53262 10.3244 3.84518 10.0118C4.15774 9.69928 4.33333 9.27536 4.33333 8.83333V2.16667C4.33333 1.72464 4.15774 1.30072 3.84518 0.988155C3.53262 0.675595 3.10869 0.5 2.66667 0.5C2.22464 0.5 1.80072 0.675595 1.48816 0.988155C1.17559 1.30072 1 1.72464 1 2.16667C1 2.60869 1.17559 3.03262 1.48816 3.34518C1.80072 3.65774 2.22464 3.83333 2.66667 3.83333H9.33333C9.77536 3.83333 10.1993 3.65774 10.5118 3.34518C10.8244 3.03262 11 2.60869 11 2.16667C11 1.72464 10.8244 1.30072 10.5118 0.988155C10.1993 0.675595 9.77536 0.5 9.33333 0.5Z" stroke="#898384" stroke-width="0.5" stroke-linecap="round" stroke-linejoin="round"/>
</svg>
