<svg width="15" height="14" viewBox="0 0 15 14" fill="none" xmlns="http://www.w3.org/2000/svg">
<path d="M12.445 8.75623C12.3622 8.93531 12.3375 9.13397 12.3741 9.32657C12.4107 9.51918 12.5068 9.69692 12.6502 9.83685L12.6876 9.87247C12.8032 9.98276 12.895 10.1137 12.9576 10.2579C13.0202 10.4021 13.0524 10.5566 13.0524 10.7126C13.0524 10.8687 13.0202 11.0232 12.9576 11.1674C12.895 11.3115 12.8032 11.4425 12.6876 11.5528C12.572 11.6632 12.4348 11.7508 12.2838 11.8105C12.1328 11.8703 11.9709 11.9011 11.8074 11.9011C11.6439 11.9011 11.4821 11.8703 11.331 11.8105C11.18 11.7508 11.0428 11.6632 10.9273 11.5528L10.89 11.5172C10.7434 11.3803 10.5572 11.2885 10.3554 11.2535C10.1536 11.2186 9.9455 11.2422 9.7579 11.3212C9.57392 11.3965 9.41702 11.5215 9.30651 11.6808C9.19599 11.8401 9.13668 12.0267 9.13589 12.2178V12.3187C9.13589 12.6337 9.00482 12.9357 8.77152 13.1584C8.53822 13.3811 8.2218 13.5062 7.89187 13.5062C7.56193 13.5062 7.24551 13.3811 7.01221 13.1584C6.77891 12.9357 6.64785 12.6337 6.64785 12.3187V12.2653C6.64303 12.0688 6.57639 11.8782 6.45659 11.7183C6.33678 11.5584 6.16936 11.4366 5.97608 11.3687C5.78847 11.2897 5.58036 11.2661 5.37858 11.301C5.1768 11.336 4.99061 11.4278 4.84402 11.5647L4.8067 11.6003C4.69116 11.7107 4.55396 11.7983 4.40294 11.858C4.25192 11.9178 4.09004 11.9486 3.92656 11.9486C3.76307 11.9486 3.60119 11.9178 3.45017 11.858C3.29915 11.7983 3.16195 11.7107 3.04641 11.6003C2.93075 11.49 2.83899 11.359 2.77639 11.2149C2.71378 11.0707 2.68156 10.9162 2.68156 10.7601C2.68156 10.6041 2.71378 10.4495 2.77639 10.3054C2.83899 10.1612 2.93075 10.0303 3.04641 9.91997L3.08373 9.88435C3.22713 9.74442 3.32332 9.56668 3.35991 9.37407C3.39649 9.18147 3.37179 8.98281 3.289 8.80373C3.21015 8.62811 3.07923 8.47834 2.91235 8.37285C2.74547 8.26735 2.54992 8.21074 2.34976 8.20998H2.24402C1.91408 8.20998 1.59766 8.08486 1.36436 7.86216C1.13107 7.63947 1 7.33742 1 7.02248C1 6.70753 1.13107 6.40549 1.36436 6.18279C1.59766 5.96009 1.91408 5.83498 2.24402 5.83498H2.3C2.50588 5.83038 2.70555 5.76676 2.87306 5.6524C3.04056 5.53804 3.16815 5.37822 3.23923 5.19373C3.32203 5.01464 3.34673 4.81599 3.31015 4.62338C3.27356 4.43077 3.17737 4.25303 3.03397 4.1131L2.99665 4.07748C2.88099 3.96719 2.78923 3.83622 2.72662 3.69206C2.66402 3.5479 2.6318 3.39338 2.6318 3.23732C2.6318 3.08126 2.66402 2.92674 2.72662 2.78258C2.78923 2.63842 2.88099 2.50745 2.99665 2.39716C3.11219 2.28675 3.24939 2.19916 3.40041 2.1394C3.55143 2.07964 3.71331 2.04889 3.87679 2.04889C4.04028 2.04889 4.20216 2.07964 4.35318 2.1394C4.5042 2.19916 4.6414 2.28675 4.75694 2.39716L4.79426 2.43279C4.94085 2.56967 5.12704 2.66149 5.32882 2.69642C5.5306 2.73134 5.73871 2.70776 5.92632 2.62873H5.97608C6.16005 2.55346 6.31695 2.42849 6.42746 2.26919C6.53798 2.10989 6.59729 1.92322 6.59809 1.73216V1.63123C6.59809 1.31628 6.72915 1.01424 6.96245 0.791536C7.19575 0.568837 7.51217 0.443726 7.84211 0.443726C8.17204 0.443726 8.48846 0.568837 8.72176 0.791536C8.95506 1.01424 9.08612 1.31628 9.08612 1.63123V1.68466C9.08692 1.87572 9.14623 2.06239 9.25675 2.22169C9.36726 2.38099 9.52416 2.50596 9.70813 2.58123C9.89574 2.66026 10.1039 2.68384 10.3056 2.64892C10.5074 2.61399 10.6936 2.52217 10.8402 2.38529L10.8775 2.34966C10.993 2.23925 11.1302 2.15166 11.2813 2.0919C11.4323 2.03214 11.5942 2.00139 11.7577 2.00139C11.9211 2.00139 12.083 2.03214 12.234 2.0919C12.3851 2.15166 12.5223 2.23925 12.6378 2.34966C12.7535 2.45995 12.8452 2.59092 12.9078 2.73508C12.9704 2.87924 13.0027 3.03376 13.0027 3.18982C13.0027 3.34588 12.9704 3.5004 12.9078 3.64456C12.8452 3.78872 12.7535 3.91969 12.6378 4.02998L12.6005 4.0656C12.4571 4.20554 12.3609 4.38327 12.3243 4.57588C12.2877 4.76849 12.3124 4.96714 12.3952 5.14623V5.19373C12.4741 5.36934 12.605 5.51911 12.7719 5.62461C12.9387 5.7301 13.1343 5.78671 13.3345 5.78748H13.4402C13.7701 5.78748 14.0865 5.91259 14.3198 6.13529C14.5531 6.35799 14.6842 6.66003 14.6842 6.97498C14.6842 7.28992 14.5531 7.59197 14.3198 7.81466C14.0865 8.03736 13.7701 8.16248 13.4402 8.16248H13.3842C13.1841 8.16324 12.9885 8.21985 12.8216 8.32535C12.6547 8.43084 12.5238 8.58061 12.445 8.75623Z" stroke="#898384" stroke-width="0.5" stroke-linecap="round" stroke-linejoin="round"/>
</svg>
