<svg width="11" height="9" viewBox="0 0 11 9" fill="none" xmlns="http://www.w3.org/2000/svg">
<path d="M10.8522 5.22751C10.8137 5.25969 10.7699 5.28311 10.7233 5.29642C10.6766 5.30973 10.6281 5.31268 10.5804 5.30509C10.5328 5.29751 10.4869 5.27954 10.4455 5.25221C10.4041 5.22488 10.3679 5.18873 10.339 5.14582C10.118 4.81492 9.83037 4.54644 9.49924 4.362C9.16811 4.17755 8.80273 4.0823 8.43252 4.0839C8.33529 4.0839 8.24203 4.04087 8.17328 3.96427C8.10452 3.88767 8.0659 3.78379 8.0659 3.67546C8.0659 3.56714 8.10452 3.46325 8.17328 3.38666C8.24203 3.31006 8.33529 3.26703 8.43252 3.26703C8.63823 3.26701 8.83981 3.20272 9.01437 3.08147C9.18893 2.96022 9.32946 2.78686 9.42001 2.58109C9.51056 2.37531 9.5475 2.14538 9.52662 1.91739C9.50575 1.68941 9.4279 1.47251 9.30192 1.29135C9.17595 1.11018 9.00689 0.972 8.81395 0.892506C8.62101 0.813012 8.41193 0.79539 8.21045 0.841639C8.00898 0.887889 7.82318 0.996157 7.67417 1.15415C7.52516 1.31213 7.4189 1.51351 7.36747 1.7354C7.35544 1.78736 7.33433 1.83617 7.30536 1.87905C7.27639 1.92192 7.24013 1.95802 7.19864 1.98528C7.15715 2.01254 7.11124 2.03043 7.06354 2.03792C7.01585 2.04542 6.96729 2.04237 6.92065 2.02896C6.87401 2.01556 6.83019 1.99204 6.79171 1.95977C6.75322 1.9275 6.72082 1.8871 6.69635 1.84087C6.67188 1.79465 6.65583 1.74351 6.6491 1.69037C6.64237 1.63724 6.6451 1.58315 6.65714 1.53119C6.72852 1.22349 6.86338 0.938598 7.05098 0.699182C7.23858 0.459765 7.47376 0.27243 7.73779 0.152084C8.00182 0.0317377 8.28742 -0.0182984 8.57186 0.00595666C8.8563 0.0302118 9.13174 0.128089 9.37625 0.2918C9.62076 0.455511 9.8276 0.680537 9.98031 0.948973C10.133 1.21741 10.2274 1.52185 10.2559 1.83806C10.2844 2.15428 10.2463 2.47354 10.1445 2.77045C10.0428 3.06736 9.88028 3.33372 9.66988 3.54834C10.1684 3.7888 10.6018 4.17039 10.9269 4.65519C10.9558 4.69821 10.9768 4.74716 10.9887 4.79922C11.0006 4.85129 11.0031 4.90545 10.9962 4.95862C10.9892 5.01178 10.973 5.0629 10.9483 5.10904C10.9236 5.15518 10.8909 5.19544 10.8522 5.22751ZM8.38303 8.37245C8.40862 8.41895 8.4256 8.47068 8.43296 8.5246C8.44031 8.57852 8.4379 8.63354 8.42587 8.68641C8.41383 8.73928 8.39241 8.78892 8.36287 8.83242C8.33333 8.87591 8.29627 8.91237 8.25387 8.93965C8.21148 8.96693 8.16461 8.98448 8.11603 8.99125C8.06745 8.99803 8.01814 8.99389 7.97102 8.97909C7.9239 8.9643 7.87992 8.93913 7.84166 8.90509C7.80341 8.87105 7.77167 8.82882 7.74831 8.78088C7.51733 8.34534 7.18842 7.9844 6.79403 7.73366C6.39964 7.48293 5.95338 7.35105 5.49929 7.35105C5.0452 7.35105 4.59894 7.48293 4.20455 7.73366C3.81016 7.9844 3.48125 8.34534 3.25027 8.78088C3.22735 8.82969 3.19581 8.87284 3.15753 8.90771C3.11926 8.94259 3.07505 8.96848 3.02756 8.98383C2.98007 8.99917 2.93029 9.00366 2.8812 8.99702C2.83212 8.99038 2.78474 8.97274 2.74194 8.94518C2.69913 8.91761 2.66177 8.88068 2.6321 8.83661C2.60243 8.79254 2.58108 8.74224 2.56931 8.68874C2.55755 8.63523 2.55562 8.57963 2.56365 8.52528C2.57167 8.47092 2.58948 8.41894 2.61601 8.37245C2.97145 7.69209 3.51341 7.15668 4.16225 6.84491C3.79715 6.5335 3.52883 6.10246 3.395 5.61237C3.26117 5.12229 3.26856 4.59781 3.41613 4.11264C3.5637 3.62748 3.84404 3.20604 4.21774 2.90754C4.59143 2.60905 5.0397 2.44853 5.49952 2.44853C5.95934 2.44853 6.40761 2.60905 6.7813 2.90754C7.155 3.20604 7.43533 3.62748 7.58291 4.11264C7.73048 4.59781 7.73787 5.12229 7.60404 5.61237C7.47021 6.10246 7.20188 6.5335 6.83678 6.84491C7.48562 7.15668 8.02759 7.69209 8.38303 8.37245ZM5.49952 6.5345C5.78957 6.5345 6.0731 6.43868 6.31426 6.25917C6.55543 6.07965 6.74339 5.82449 6.85439 5.52597C6.96539 5.22744 6.99443 4.89895 6.93784 4.58204C6.88126 4.26513 6.74159 3.97402 6.53649 3.74554C6.3314 3.51706 6.07009 3.36146 5.78562 3.29842C5.50115 3.23538 5.20628 3.26774 4.93831 3.39139C4.67034 3.51504 4.44131 3.72444 4.28017 3.99311C4.11903 4.26178 4.03302 4.57764 4.03302 4.90076C4.03302 5.33406 4.18752 5.7496 4.46255 6.05599C4.73757 6.36237 5.11058 6.5345 5.49952 6.5345ZM2.93314 3.67546C2.93314 3.56714 2.89452 3.46325 2.82576 3.38666C2.757 3.31006 2.66375 3.26703 2.56652 3.26703C2.36081 3.26701 2.15922 3.20272 1.98467 3.08147C1.81011 2.96022 1.66958 2.78686 1.57903 2.58109C1.48848 2.37531 1.45154 2.14538 1.47241 1.91739C1.49329 1.68941 1.57114 1.47251 1.69711 1.29135C1.82309 1.11018 1.99215 0.972 2.18509 0.892506C2.37803 0.813012 2.58711 0.79539 2.78858 0.841639C2.99006 0.887889 3.17586 0.996157 3.32487 1.15415C3.47388 1.31213 3.58014 1.51351 3.63156 1.7354C3.65587 1.84034 3.7166 1.93022 3.8004 1.98528C3.8842 2.04033 3.98419 2.05605 4.07839 2.02896C4.17258 2.00188 4.25327 1.93423 4.30268 1.84087C4.3521 1.74752 4.36621 1.63612 4.3419 1.53119C4.27052 1.22349 4.13566 0.938598 3.94806 0.699182C3.76045 0.459765 3.52528 0.27243 3.26125 0.152084C2.99722 0.0317377 2.71162 -0.0182984 2.42718 0.00595666C2.14274 0.0302118 1.8673 0.128089 1.62279 0.2918C1.37828 0.455511 1.17144 0.680537 1.01873 0.948973C0.866015 1.21741 0.771649 1.52185 0.743137 1.83806C0.714624 2.15428 0.752753 2.47354 0.854488 2.77045C0.956223 3.06736 1.11876 3.33372 1.32916 3.54834C0.831133 3.78903 0.398255 4.1706 0.0734641 4.65519C0.0150623 4.74185 -0.0100464 4.85081 0.00366177 4.95809C0.0173699 5.06537 0.068772 5.1622 0.14656 5.22726C0.224348 5.29232 0.32215 5.32029 0.418451 5.30502C0.514752 5.28975 0.601663 5.23248 0.660065 5.14582C0.881042 4.81492 1.16867 4.54644 1.4998 4.362C1.83093 4.17755 2.19631 4.0823 2.56652 4.0839C2.66375 4.0839 2.757 4.04087 2.82576 3.96427C2.89452 3.88767 2.93314 3.78379 2.93314 3.67546Z" fill="#FAFAFA"/>
</svg>
