<?xml version="1.0" encoding="utf-8"?>
<!-- Svg Vector Icons : http://www.onlinewebfonts.com/icon -->
<!DOCTYPE svg PUBLIC "-//W3C//DTD SVG 1.1//EN" "http://www.w3.org/Graphics/SVG/1.1/DTD/svg11.dtd">
<svg version="1.1" xmlns="http://www.w3.org/2000/svg" xmlns:xlink="http://www.w3.org/1999/xlink" x="0px" y="0px" viewBox="0 0 256 256" enable-background="new 0 0 256 256" xml:space="preserve">
<metadata> Svg Vector Icons : http://www.onlinewebfonts.com/icon </metadata>
<g><g><path fill="#000000" d="M54.8,210.5c-3.1,3.1-7.6,3.5-10.2,0.9c-2.6-2.6-2.1-7.1,0.9-10.2L201.2,45.5c3.1-3.1,7.6-3.5,10.2-0.9c2.6,2.6,2.1,7.1-0.9,10.2L54.8,210.5z M136,83l-12.8,12.8c-14.2,2.1-25.3,13.2-27.4,27.4l-12.8,12.8c-0.5-2.6-0.7-5.3-0.7-8c0-25.3,20.5-45.8,45.9-45.8C130.7,82.2,133.4,82.5,136,83z M128,62.5c-57.2,0-92.2,48.4-102.9,65.6c4.9,7.9,15,22.4,30,35.7l-9.4,9.4C22,151.8,10,128,10,128s39.6-78.7,118-78.7c13,0,24.9,2.2,35.8,5.8l-10.7,10.7C145.3,63.7,137,62.5,128,62.5z M120,173.1l12.8-12.8c14.2-2.1,25.3-13.2,27.4-27.4l12.8-12.8c0.5,2.6,0.7,5.3,0.7,8c0,25.3-20.5,45.8-45.9,45.8C125.3,173.8,122.6,173.5,120,173.1z M128,193.6c57.4,0,92.4-48.5,102.9-65.6c-4.8-7.9-15-22.4-30-35.8l9.4-9.4C234.1,104.2,246,128,246,128s-39.3,78.7-118,78.7c-13,0-24.9-2.2-35.8-5.8l10.6-10.6C110.7,192.3,119.1,193.6,128,193.6z"/></g></g>
</svg>