<?xml version="1.0" encoding="utf-8"?>
<!-- Svg Vector Icons : http://www.onlinewebfonts.com/icon -->
<!DOCTYPE svg PUBLIC "-//W3C//DTD SVG 1.1//EN" "http://www.w3.org/Graphics/SVG/1.1/DTD/svg11.dtd">
<svg version="1.1" xmlns="http://www.w3.org/2000/svg" xmlns:xlink="http://www.w3.org/1999/xlink" x="0px" y="0px" viewBox="0 0 256 256" enable-background="new 0 0 256 256" xml:space="preserve">
<metadata> Svg Vector Icons : http://www.onlinewebfonts.com/icon </metadata>
<g><g><path fill="#000000" d="M127.4,213.6C61.8,213.6,14,135.5,12,132.1l-2-3.3l1.7-3.5c1.6-3.4,40.5-83,115-83c74.3,0,115.8,79.4,117.5,82.8l1.8,3.6l-2,3.4c-2,3.3-49.3,80.5-115.4,81.5L127.4,213.6z M26.4,128.1c9.6,14.5,50.6,71.2,101,71.2h1c50.8-0.7,91.3-56.5,101.1-71.1c-8.7-14.8-45.6-71.5-102.8-71.5C69.5,56.7,34.6,113.3,26.4,128.1z"/><path fill="#000000" d="M129.3,163.8c-21.5,0-38.9-17.5-38.9-38.9s17.5-38.9,38.9-38.9c21.5,0,38.9,17.5,38.9,38.9S150.8,163.8,129.3,163.8z M129.3,100.3c-13.6,0-24.6,11-24.6,24.6s11,24.6,24.6,24.6c13.6,0,24.6-11,24.6-24.6C153.9,111.3,142.9,100.3,129.3,100.3z"/></g></g>
</svg>